HIERARCHY
ROOT hip
{
	OFFSET 0.000000 0.000000 0.000000 
	CHANNELS 6 Xposition Yposition Zposition Xrotation Zrotation Yrotation
	JOINT abdomen
	{
		OFFSET 0.000000 3.402643 0.000000 
		CHANNELS 3 Xrotation Zrotation Yrotation
		JOINT chest
		{
			OFFSET 0.000000 8.438565 -0.680529 
			CHANNELS 3 Xrotation Zrotation Yrotation
			JOINT neck
			{
				OFFSET 0.000000 10.207942 -0.272212 
				CHANNELS 3 Xrotation Zrotation Yrotation
				JOINT head
				{
					OFFSET 0.000000 3.130431 0.000000 
					CHANNELS 3 Xrotation Zrotation Yrotation
					End Site
					{
						OFFSET 0.000000 3.130435 0.000000 
					}
				}
			}
			JOINT lCollar
			{
				OFFSET 3.470700 6.669187 -0.816635 
				CHANNELS 3 Yrotation Zrotation Xrotation
				JOINT lShldr
				{
					OFFSET 3.198488 0.000000 0.000000 
					CHANNELS 3 Zrotation Yrotation Xrotation
					JOINT lForeArm
					{
						OFFSET 10.139888 0.000000 0.000000 
						CHANNELS 3 Yrotation Zrotation Xrotation
						JOINT lHand
						{
							OFFSET 8.370511 0.000000 0.000000 
							CHANNELS 3 Zrotation Yrotation Xrotation
							End Site
							{
								OFFSET 4.083176 0.000000 0.000000 
							}
						}
					}
				}
			}
			JOINT rCollar
			{
				OFFSET -3.470700 6.669187 -0.816635 
				CHANNELS 3 Yrotation Zrotation Xrotation
				JOINT rShldr
				{
					OFFSET -3.198488 0.000000 0.000000 
					CHANNELS 3 Zrotation Yrotation Xrotation
					JOINT rForeArm
					{
						OFFSET -10.139888 0.000000 0.000000 
						CHANNELS 3 Yrotation Zrotation Xrotation
						JOINT rHand
						{
							OFFSET -8.370511 0.000000 0.000000 
							CHANNELS 3 Zrotation Yrotation Xrotation
							End Site
							{
								OFFSET -4.083176 0.000000 0.000000 
							}
						}
					}
				}
			}
		}
	}
	JOINT lThigh
	{
		OFFSET 5.308129 -1.633274 1.361059 
		CHANNELS 3 Xrotation Zrotation Yrotation
		JOINT lShin
		{
			OFFSET -2.041588 -20.007561 0.000000 
			CHANNELS 3 Xrotation Zrotation Yrotation
			JOINT lFoot
			{
				OFFSET 0.000000 -19.190928 -1.224953 
				CHANNELS 3 Xrotation Yrotation Zrotation
				End Site
				{
					OFFSET 0.000000 -2.449906 4.627600 
				}
			}
		}
	}
	JOINT rThigh
	{
		OFFSET -5.308129 -1.633274 1.361059 
		CHANNELS 3 Xrotation Zrotation Yrotation
		JOINT rShin
		{
			OFFSET 2.041588 -20.007561 0.000000 
			CHANNELS 3 Xrotation Zrotation Yrotation
			JOINT rFoot
			{
				OFFSET 0.000000 -19.190928 -1.224953 
				CHANNELS 3 Xrotation Yrotation Zrotation
				End Site
				{
					OFFSET 0.000000 -2.449906 4.627600 
				}
			}
		}
	}
}
MOTION
Frames: 20
Frame Time: 0.033333
-67.690186 48.282730 34.840233 -3.888655 -1.327606 -1.602038 0.000000 0.000000 0.000000 -2.058781 -0.869104 0.527283 4.816618 -2.314388 0.429731 6.344124 -1.523425 -0.234552 -6.425824 -1.133120 -1.388060 -70.518639 5.398345 15.690602 -41.372974 -7.380636 17.226618 0.574633 1.326488 -3.482045 7.956355 4.635844 -1.504684 62.470360 -7.750493 26.380150 42.683311 8.293847 20.163710 -4.102761 -9.122293 -3.382573 -0.976210 4.751357 2.589303 21.924833 -3.586599 4.535135 -16.848919 0.185724 -1.213098 -3.095389 -8.952673 -5.062167 18.665619 3.844981 -10.030782 -9.421726 -0.625782 7.355629 
-67.959419 48.310085 34.866409 -3.797552 -1.278661 -1.807280 0.000000 0.000000 0.000000 -2.057318 -0.751925 0.498004 4.827259 -2.109212 0.713126 5.909658 -2.119124 0.224456 -6.160880 -0.704139 -1.349624 -71.252258 6.301785 14.810219 -40.346622 -7.387797 14.895755 1.142524 1.791982 -3.488769 7.969487 4.731858 -1.515095 62.532867 -7.482254 26.266689 42.228184 8.256112 20.234312 -3.443320 -8.784333 -3.421468 -0.917161 4.983166 2.738288 21.609167 -3.607580 5.216874 -16.617764 0.212433 -1.662027 -2.996290 -8.868968 -5.236665 18.689587 4.198500 -9.508961 -9.795217 -0.606214 6.832824 
-68.240814 48.294228 34.838108 -3.615272 -1.366385 -1.963497 0.000000 0.000000 0.000000 -1.995633 -0.439440 0.449205 4.637108 -1.952703 1.192045 5.955690 -2.460747 0.713491 -6.261529 -0.874200 -1.291255 -70.836319 7.553004 14.026230 -39.806942 -7.441328 12.999026 1.371119 2.520633 -3.491930 7.887289 4.979567 -1.505802 62.426357 -7.586977 25.744268 42.376747 8.138257 19.650162 -2.389796 -9.067888 -3.477052 -1.365711 5.217991 2.683950 21.914814 -3.361849 6.006757 -16.578354 0.336945 -2.267066 -3.514536 -8.570535 -5.310279 19.161501 4.507911 -9.998685 -9.964905 -0.553901 6.353615 
-68.524040 48.333511 34.813366 -4.082147 -1.405034 -2.383533 0.000000 0.000000 0.000000 -1.388836 -0.234365 0.517574 5.165183 -1.893599 1.797830 4.866247 -2.567757 1.241176 -6.022413 -0.511184 -0.708932 -70.878090 8.362291 13.547538 -38.780727 -7.550130 11.322114 1.766677 3.230478 -3.490496 7.885193 5.324454 -0.981957 62.399529 -7.431973 25.028765 41.831936 7.998827 19.378963 -2.555135 -8.794471 -3.466277 -0.771385 5.366241 2.658194 21.517378 -3.088939 7.036799 -16.180872 0.418617 -2.937671 -3.094314 -8.178114 -5.277809 18.971779 4.500782 -10.015707 -9.841321 -0.520357 5.935922 
-68.796829 48.322899 34.771259 -3.880173 -1.238998 -2.559262 0.000000 0.000000 0.000000 -1.329358 -0.185543 0.380857 5.203135 -1.668442 2.413077 4.703467 -3.200850 2.161378 -6.293422 -0.348222 -0.650345 -70.405434 10.020507 13.400102 -38.558762 -7.580925 11.531918 2.338543 4.823999 -3.494729 7.807978 5.544580 -0.953263 62.197765 -7.713960 24.595366 41.639381 7.949535 19.357164 -2.625655 -8.750379 -3.468170 -1.054540 5.455680 2.591116 21.519764 -2.991845 7.784255 -16.006819 0.462482 -3.486064 -3.727840 -7.922218 -5.090397 19.518665 4.403152 -10.269472 -10.052362 -0.538823 5.703458 
-69.061272 48.303528 34.739639 -3.948970 -1.014620 -2.549293 0.000000 0.000000 0.000000 -1.113771 -0.136718 0.205078 5.572122 -1.657609 3.175041 4.203006 -3.227847 3.051384 -6.653831 -0.405815 -0.455883 -69.245491 11.581630 13.927347 -38.423538 -7.829552 14.142424 1.085266 4.430993 -3.499486 7.684147 5.678604 -0.768604 62.022842 -8.134404 24.090189 41.308456 7.865114 19.458664 -2.649457 -8.408835 -3.463455 -1.113217 5.379918 2.371945 21.526430 -2.678525 8.198604 -15.822113 0.575274 -4.051219 -4.070054 -7.777919 -4.977871 20.161211 4.265580 -10.503358 -10.408010 -0.526257 5.563461 
-69.333527 48.284519 34.729122 -3.821777 -0.819538 -2.490538 0.000000 0.000000 0.000000 -1.084074 -0.058594 0.087891 5.481939 -1.597518 4.073675 5.274790 -3.107917 3.931117 -6.670231 -0.022987 -0.387981 -68.263313 12.599706 15.893094 -37.799419 -8.741125 16.971165 1.209502 3.225257 -3.501485 7.365057 5.542565 -0.720945 62.158840 -8.826413 23.564272 41.052654 7.772797 19.110954 -2.282586 -8.355482 -3.480469 -1.296769 5.517836 2.353867 21.579550 -2.607754 8.334530 -15.706184 0.588047 -4.450946 -4.538386 -7.894438 -5.285991 20.754980 4.713707 -10.692584 -10.702483 -0.504222 5.037153 
-69.565872 48.288963 34.702744 -3.513102 -0.956127 -2.490702 0.000000 0.000000 0.000000 -1.201228 0.332031 -0.009765 5.576279 -1.332759 5.020668 5.686283 -3.191674 4.850899 -6.549036 0.500468 -0.446354 -67.655853 13.542030 17.229563 -36.945198 -9.367748 19.213335 0.770852 3.373953 -3.493876 7.345218 5.796515 -0.877187 61.987137 -9.965793 23.045464 40.739304 7.690800 19.128628 -2.499659 -8.017275 -3.477334 -1.600062 5.960742 2.491183 21.574629 -2.586750 8.143270 -15.666195 0.649429 -4.725572 -4.861435 -7.525568 -5.218491 20.724751 4.937660 -10.725476 -10.782517 -0.441410 4.646611 
-69.803749 48.277527 34.686775 -3.283721 -0.897692 -2.334310 0.000000 0.000000 0.000000 -1.230256 0.625000 0.019637 5.583135 -1.350234 5.900015 6.552969 -2.887506 5.406797 -6.528250 0.674982 -0.436686 -66.863808 14.446171 18.455742 -36.935474 -9.986338 20.834551 0.559595 3.312008 -3.496830 7.301837 5.949767 -0.906203 61.720840 -11.219525 22.446306 40.495953 7.609529 18.726461 -2.731499 -7.758200 -3.469658 -1.806026 6.373707 2.672540 21.593172 -2.688098 7.403405 -15.661895 0.674339 -4.833290 -5.253314 -7.342399 -5.265346 21.033199 5.135724 -11.299176 -10.998502 -0.436391 4.337383 
-70.049622 48.295017 34.647076 -2.871559 -0.731854 -2.256049 0.000000 0.000000 0.000000 -1.365972 0.712890 0.097770 5.698802 -1.067325 6.495192 6.756575 -3.708816 6.184799 -6.182948 0.891124 -0.563191 -66.627792 15.196424 19.069941 -36.589714 -10.209351 22.295771 0.272439 3.538872 -3.492162 7.500183 6.218291 -1.072656 61.343929 -12.539481 22.012430 40.012821 7.590434 18.267984 -2.949219 -7.566719 -3.461259 -2.019888 6.536689 2.614341 21.156130 -2.659264 6.988575 -15.407532 0.686233 -5.022168 -5.806207 -7.015311 -4.899347 21.081997 4.852712 -11.879183 -10.989941 -0.429825 4.307964 
-70.263527 48.285324 34.594776 -2.984766 -0.409941 -1.855561 0.000000 0.000000 0.000000 -1.053675 0.742187 0.078245 5.936920 -1.172455 7.149930 7.497593 -3.307974 6.612491 -6.127938 1.006806 -0.281712 -66.890457 15.739208 18.789215 -36.369759 -10.154274 22.375822 0.255102 3.811835 -3.500180 7.377899 6.062346 -0.779803 61.280178 -13.362660 21.677172 39.301422 7.667004 18.176264 -2.910592 -7.270263 -3.464326 -1.883657 6.517882 2.503464 20.901535 -2.561545 6.222481 -15.223310 0.707651 -5.184562 -5.992874 -6.997328 -4.900708 21.550365 4.739313 -12.638858 -11.180875 -0.458441 4.274261 
-70.470070 48.303265 34.526779 -3.189165 -0.175731 -1.367211 0.000000 0.000000 0.000000 -0.634361 0.791016 0.029429 6.517296 -1.006867 7.530357 7.418376 -3.749718 7.183198 -6.280595 0.760802 0.097062 -66.940338 16.313082 18.202505 -36.563377 -9.997930 21.044027 0.430681 3.656332 -3.500155 7.350750 6.284331 -0.419335 60.877037 -14.230157 21.271429 38.910110 7.713555 17.242815 -2.685876 -7.275185 -3.472300 -1.531550 6.564545 2.520686 20.408434 -2.520128 5.325500 -14.903348 0.665458 -5.247224 -5.875530 -7.016495 -5.037439 21.586899 4.855062 -13.189741 -11.219672 -0.417645 4.056265 
-70.682655 48.307934 34.449635 -3.273372 0.136706 -0.791013 0.000000 0.000000 0.000000 -0.302868 0.781250 -0.009765 6.996218 -0.947789 7.969752 7.939098 -3.784443 7.653484 -6.099710 0.836382 0.398084 -67.309616 16.188719 17.614904 -36.176537 -9.895116 19.437210 0.080800 3.165085 -3.485940 7.356744 6.371726 -0.117674 60.769661 -15.087497 21.245699 38.248772 7.711112 19.074221 -3.808267 -7.270518 -3.433128 -1.464401 6.646572 2.583232 20.059801 -2.629511 4.550105 -14.582274 0.692740 -5.239714 -6.012377 -7.026560 -5.048456 21.830999 4.815858 -13.536521 -11.326760 -0.389665 3.854224 
-70.901505 48.315174 34.373608 -3.495756 0.283203 0.068407 0.000000 0.000000 0.000000 0.086725 0.976562 -0.068349 7.801759 -0.947075 8.272607 8.199480 -3.926498 7.987372 -6.269660 0.697063 0.766939 -67.164444 15.709768 17.601971 -36.148243 -10.002529 18.371830 -0.160339 3.111247 -3.489664 7.229693 6.435798 0.233229 60.597500 -15.799867 21.364220 38.049210 7.827404 19.243973 -3.955972 -7.397824 -3.423642 -1.269542 6.823143 2.549772 19.768305 -2.453354 3.310643 -14.310234 0.690906 -5.358072 -5.815412 -6.819316 -5.073125 21.881290 4.763911 -14.516043 -11.357131 -0.393675 3.841719 
-71.150642 48.310898 34.266560 -3.166478 0.468692 0.898487 0.000000 0.000000 0.000000 0.079224 1.074218 0.058767 8.304059 -0.733395 8.828771 9.031875 -4.885286 8.664417 -5.825776 1.082912 0.777271 -67.278816 14.573869 17.735569 -36.232182 -10.032817 18.779367 -0.630013 3.278363 -3.496956 7.329062 6.560656 0.213919 60.435310 -16.708145 21.460377 38.258011 7.856447 19.050098 -4.267116 -7.555874 -3.411963 -1.727544 7.112539 2.609430 19.550261 -2.531688 1.938991 -14.025404 0.664611 -5.335472 -6.286672 -6.657159 -5.066343 22.104170 4.801887 -15.756838 -11.459210 -0.400457 3.774135 
-71.391869 48.307461 34.142323 -2.963948 0.839491 1.660407 0.000000 0.000000 0.000000 0.131148 1.171868 0.205235 9.034634 -1.116100 9.855243 10.217382 -4.761102 9.299352 -5.440701 0.743536 0.806962 -66.811050 13.274002 17.769699 -36.288288 -10.030695 19.320660 -1.298040 3.502246 -3.500694 7.697866 6.584182 0.232963 60.246716 -17.632004 21.744251 38.544594 7.963272 18.994989 -5.004440 -7.477781 -3.384075 -2.030837 7.145775 2.525004 19.169231 -2.570744 1.099755 -13.575942 0.652503 -5.445476 -6.775062 -6.628177 -4.963575 22.457832 4.656411 -16.777534 -11.574746 -0.379787 3.785520 
-71.655838 48.295040 33.984924 -3.163993 1.151306 2.432326 0.000000 0.000000 0.000000 0.607479 1.279243 0.527648 10.200888 -1.284819 10.940191 11.119431 -5.519375 10.085964 -4.991025 0.439933 1.225852 -66.117516 11.610173 18.153166 -37.244259 -10.035810 20.192333 -0.406199 4.084418 -3.505993 7.756951 6.372007 0.680681 60.554245 -17.612591 22.005930 38.412258 8.043567 18.940538 -4.969598 -7.710382 -3.376571 -1.805636 7.240772 2.399784 18.745934 -2.366642 -0.928018 -13.364223 0.665404 -5.545298 -6.801516 -6.507884 -4.923560 22.805988 4.507973 -17.682552 -11.735790 -0.419334 3.756447 
-71.935883 48.239262 33.783260 -2.694324 1.276849 3.545999 0.000000 0.000000 0.000000 0.610360 1.386641 0.605764 10.738608 -1.155387 12.102035 13.327567 -6.534275 11.206258 -3.841495 1.469343 1.247557 -66.579018 9.274542 18.553368 -37.994728 -9.895980 20.739822 0.469973 4.431843 -3.507365 8.156076 7.303095 0.603115 59.401466 -18.307190 22.803282 39.927010 8.209135 18.838074 -5.894126 -8.303470 -3.327600 -2.878599 7.512366 2.172077 19.111942 -2.141745 -2.678791 -13.291564 0.633513 -5.702858 -7.739223 -6.235642 -4.651460 23.463455 4.334102 -18.511114 -11.966876 -0.412606 3.827194 
-72.197319 48.254448 33.621441 -2.657296 2.091491 5.042468 0.000000 0.000000 0.000000 0.968171 1.347494 0.889115 11.743736 -2.166895 13.300537 15.035732 -6.123533 11.590123 -4.244326 0.169805 1.528998 -65.228180 7.605403 18.631092 -39.710888 -9.657550 20.758352 0.794678 4.393287 -3.502971 7.857334 6.389825 1.011661 60.189110 -17.927347 23.038176 39.762096 8.246529 19.259663 -6.270392 -8.515218 -3.298550 -2.819001 6.973747 1.756945 17.978092 -2.073222 -3.781772 -12.334496 0.609999 -5.853766 -7.975484 -6.813375 -5.015296 23.868876 4.438338 -20.065493 -12.075013 -0.434867 3.849609 
-72.496719 48.235416 33.436420 -2.853697 2.580217 6.647490 0.000000 0.000000 0.000000 1.728375 1.249850 0.888886 12.425827 -2.242638 14.317615 17.427744 -6.894189 12.523178 -3.488562 0.987164 2.242322 -65.851685 4.508105 19.207508 -40.555080 -9.415503 21.148563 0.396206 3.898810 -3.499955 8.007751 6.818876 1.674336 59.844273 -17.294163 23.325600 40.294044 8.300137 19.056839 -5.617557 -8.921710 -3.318053 -2.958135 6.823328 1.477546 17.591852 -1.897709 -4.924327 -11.695938 0.593205 -6.059180 -8.042684 -6.753680 -4.986671 24.324093 4.188103 -22.021149 -12.132801 -0.453389 4.080235 
